<?xml version="1.0" encoding="UTF-8"?><svg id="a" xmlns="http://www.w3.org/2000/svg" viewBox="0 0 439.61 71.3"><defs><style>.b{fill:#fff;}</style></defs><path class="b" d="M250.18,2.16h1.62V0h-29.2V2.16h1.62c3.58,0,6.49,2.91,6.49,6.5V29.16c0,1.78-1.45,3.24-3.24,3.24h-25.97c-1.79,0-3.24-1.45-3.25-3.24V8.66c0-3.59,2.91-6.49,6.49-6.5h1.62V0h-29.19V2.16h1.62c3.57,0,6.45,2.87,6.48,6.44V62.7c-.04,3.55-2.92,5.97-6.48,5.98h-1.62v2.62h29.19v-2.66h-1.62c-3.58,0-6.49-2.42-6.49-6.01v-23.75c0-1.79,1.46-3.24,3.25-3.24h25.97c1.79,0,3.24,1.45,3.24,3.24v23.75c0,3.59-2.91,6-6.49,6.01h-1.62v2.66h29.2v-2.63h-1.62c-3.57,0-6.45-2.41-6.48-5.97V8.6c.03-3.56,2.92-6.43,6.48-6.44"/><path class="b" d="M73,2.16h1.62V0h-29.19V2.16h1.63c3.58,0,6.49,2.91,6.49,6.5V29.16c0,1.78-1.45,3.24-3.24,3.24H24.32c-1.78,0-3.24-1.45-3.24-3.24V8.66c0-3.59,2.91-6.49,6.49-6.5h1.62V0H0V2.16H1.62c3.56,0,6.45,2.87,6.48,6.44V62.7c-.04,3.55-2.92,5.93-6.48,5.93H0v2.67H29.19v-2.63h-1.62c-3.58,0-6.49-2.45-6.49-6.04v-23.75c0-1.79,1.46-3.24,3.24-3.24h25.98c1.79,0,3.24,1.45,3.24,3.24v23.75c0,3.59-2.91,6.01-6.49,6.02h-1.63v2.64h29.19v-2.64h-1.62c-3.56,0-6.45-2.4-6.49-5.96V8.6c.04-3.56,2.92-6.43,6.49-6.44"/><path class="b" d="M105.57,2.16h1.62V0h-29.2V2.16h1.62c3.57,0,6.45,2.87,6.48,6.44V62.7c-.04,3.55-2.92,5.95-6.48,5.96h-1.62v2.64h29.2v-2.63h-1.62c-3.57,0-6.45-2.41-6.48-5.96V8.6c.03-3.56,2.92-6.43,6.48-6.44"/><path class="b" d="M162.43,35.64h-14.57v2.16h1.62c3.56,0,6.45,2.88,6.48,6.44l-.02,11.92v.02c0,7.12-5.59,12.44-12.71,12.5h-6.74c-7.11-.05-12.86-5.38-12.86-12.5,0,0,0-.01,0-.02V15.14s0-.02,0-.02c0-7.12,5.75-12.9,12.86-12.95h6.74c7.11,.05,12.71,5.83,12.71,12.95v4.31h12.97C168.9,8.74,160.27,.07,149.59,0h-19.59c-10.69,.07-19.33,8.75-19.33,19.46V51.84c0,10.7,8.64,19.39,19.33,19.46h19.59c10.69-.07,19.33-8.76,19.33-19.46v-7.6c.04-3.55,2.92-6.43,6.49-6.44h1.62v-2.16h-14.6Z"/><path class="b" d="M344.72,68.67v2.63h25.94v-2.63c-4.8-.96-6.45-3.21-9.54-11.52C353.83,38.22,346.75,19.08,339.68,0h-5.85l-23.52,57.15c-4.1,10.05-5.73,10.36-13.23,11.52v2.63h25.52v-2.63c-8.74-.93-9.67-1.77-7.19-8.66,1.47-4.49,3.01-8.89,4.95-14.07h24.83c2.48,6.49,4.56,12.14,6.18,16.63,1.54,4.57,.54,5.1-6.65,6.11m-22.43-27.84c3.48-9.13,7.12-18.8,10.83-28.15h.24l10.13,28.15h-21.19Z"/><path class="b" d="M304.44,3.55c-2.24-1.65-4.97-2.79-8.11-3.55h-41.16V2.11c8.58,.54,9.59,1.13,9.59,11.26V58c0,8.1-.74,9.83-6.79,10.67v2.62h27.64v-2.63c-9.33-.74-10.26-1.33-10.26-10.59v-17.25l8.66,2.17c1.24,.08,3.63,.08,5.41-.16,11.29-1.31,22.58-8.43,22.58-23.2,0-7.42-2.94-12.68-7.58-16.09m-20.8,34.73c-3.64,0-6.81-.85-8.28-1.39V9.2c0-3.17,.47-4.41,1.24-5.18,.77-.77,3.17-1.39,6.34-1.39,9.12,0,17.02,5.1,17.02,17.4,0,14.38-9.12,18.25-16.32,18.25"/><path class="b" d="M439.61,68.58c-2.5-.51-4.94-.39-7.75-3.55-2.71-2.79-5.18-5.96-9.36-11.91-3.48-5.18-8.2-12.6-10.21-16.32,8.28-3.48,14.62-9.36,14.62-19.18,0-6.88-2.94-11.91-7.66-14.85-1.88-1.25-3.99-2.15-6.47-2.78h-41.95V2.23c8.97,.62,9.98,1.24,9.98,10.91V58c0,8.09-.79,9.84-6.78,10.67v2.62h27.66v-2.63c-9.28-.77-10.36-1.15-10.36-10.67v-17.63h3.25c5.95,0,7.96,1.39,10.05,4.64,3.48,5.42,7.27,12.3,11.21,17.79,3.1,4.32,6.03,6.96,9.77,8.51h13.99v-2.71Zm-30.48-35.26c-2.94,2.32-6.81,3.25-12.61,3.25h-5.18V8.73c0-2.94,.47-4.25,1.24-4.87,.85-.62,2.71-1.08,6.19-1.08,8.58,0,16.55,4.49,16.55,16.63,0,6.11-1.78,10.52-6.19,13.92"/></svg>